<svg width="46" height="46" viewBox="0 0 46 46" fill="none" xmlns="http://www.w3.org/2000/svg">
<path d="M35.9999 33.3599H9.99989C8.69889 33.3599 7.63989 32.3009 7.63989 30.9999V14.9999C7.63989 13.6989 8.69889 12.6399 9.99989 12.6399H35.9999C37.3019 12.6399 38.3599 13.6989 38.3599 14.9999V30.9999C38.3599 32.3019 37.3019 33.3599 35.9999 33.3599ZM8.35989 20.3599V30.9999C8.35989 31.9039 9.09589 32.6399 9.99989 32.6399H35.9999C36.9039 32.6399 37.6399 31.9049 37.6399 30.9999V20.3599H8.35989ZM8.35989 19.6399H37.6399V17.3599H8.35989V19.6399ZM8.35989 16.6399H37.6399V14.9999C37.6399 14.0959 36.9049 13.3599 35.9999 13.3599H9.99989C9.09589 13.3599 8.35989 14.0959 8.35989 14.9999V16.6399Z" fill="#161616"/>
</svg>
