<svg width="46" height="46" viewBox="0 0 46 46" fill="none" xmlns="http://www.w3.org/2000/svg">
<path d="M33 38.36C31.698 38.36 30.64 37.301 30.64 36C30.64 34.699 31.699 33.64 33 33.64C34.301 33.64 35.36 34.699 35.36 36C35.36 37.301 34.302 38.36 33 38.36ZM33 34.36C32.096 34.36 31.36 35.095 31.36 36C31.36 36.905 32.095 37.64 33 37.64C33.905 37.64 34.64 36.905 34.64 36C34.64 35.095 33.904 34.36 33 34.36ZM19.5 38.36C18.199 38.36 17.14 37.301 17.14 36C17.14 34.699 18.199 33.64 19.5 33.64C20.801 33.64 21.86 34.699 21.86 36C21.86 37.301 20.801 38.36 19.5 38.36ZM19.5 34.36C18.596 34.36 17.86 35.095 17.86 36C17.86 36.905 18.596 37.64 19.5 37.64C20.404 37.64 21.14 36.905 21.14 36C21.14 35.095 20.404 34.36 19.5 34.36ZM36 32.36H19.319C17.27 32.36 16.187 31.251 15.58 28.533L10.717 8.36001H8V7.64001H11C11.166 7.64001 11.311 7.75301 11.35 7.91501L13.057 14.937L13.07 14.934L15.072 23.23C15.662 25.555 16.621 26.639 18.09 26.639H33.589C34.95 26.639 35.744 25.85 36.014 24.227L37.584 13.36H16V12.64H38C38.104 12.64 38.204 12.685 38.272 12.764C38.34 12.843 38.371 12.948 38.356 13.051L36.724 24.339C36.308 26.837 34.788 27.36 33.587 27.36H18.089C17.181 27.36 16.423 27.04 15.809 26.389L16.283 28.37C16.822 30.785 17.616 31.639 19.32 31.639H36V32.36Z" fill="white"/>
</svg>
