<svg width="46" height="46" viewBox="0 0 46 46" fill="none" xmlns="http://www.w3.org/2000/svg">
<path d="M16.4949 36.359C16.0099 36.359 15.5189 36.236 15.0709 35.976C14.4089 35.594 13.9359 34.977 13.7379 34.24C13.5399 33.502 13.6419 32.731 14.0239 32.07C14.8119 30.706 16.5639 30.232 17.9299 31.023C18.5919 31.405 19.0649 32.022 19.2629 32.759C19.4609 33.497 19.3589 34.268 18.9769 34.929C18.4469 35.846 17.4839 36.359 16.4949 36.359ZM16.5029 31.361C15.7629 31.361 15.0419 31.744 14.6469 32.429C14.3609 32.924 14.2859 33.501 14.4339 34.053C14.5819 34.605 14.9359 35.067 15.4309 35.353C16.4529 35.941 17.7639 35.59 18.3529 34.57C18.6389 34.075 18.7149 33.498 18.5669 32.946C18.4189 32.394 18.0649 31.932 17.5699 31.646C17.2329 31.453 16.8659 31.361 16.5029 31.361ZM29.4949 36.359C29.0099 36.359 28.5189 36.236 28.0699 35.976C26.7049 35.188 26.2349 33.435 27.0229 32.07C27.8109 30.704 29.5629 30.233 30.9289 31.023C32.2939 31.811 32.7639 33.564 31.9759 34.929C31.4469 35.846 30.4839 36.359 29.4949 36.359ZM27.6459 32.43C27.0569 33.452 27.4079 34.764 28.4289 35.354C29.4509 35.943 30.7619 35.592 31.3529 34.571C31.9419 33.549 31.5909 32.237 30.5699 31.647C29.5489 31.058 28.2369 31.408 27.6459 32.43ZM35.4999 25.86C33.9229 25.86 32.6399 24.577 32.6399 23C32.6399 21.423 33.9229 20.14 35.4999 20.14C37.0769 20.14 38.3599 21.423 38.3599 23C38.3599 24.577 37.0769 25.86 35.4999 25.86ZM35.4999 20.86C34.3199 20.86 33.3599 21.82 33.3599 23C33.3599 24.18 34.3199 25.139 35.4999 25.139C36.6799 25.139 37.6399 24.18 37.6399 23C37.6399 21.82 36.6799 20.86 35.4999 20.86ZM22.9999 25.86C21.4229 25.86 20.1399 24.577 20.1399 23C20.1399 21.423 21.4229 20.14 22.9999 20.14C24.5769 20.14 25.8599 21.423 25.8599 23C25.8599 24.577 24.5769 25.86 22.9999 25.86ZM22.9999 20.86C21.8199 20.86 20.8599 21.82 20.8599 23C20.8599 24.18 21.8199 25.14 22.9999 25.14C24.1799 25.14 25.1399 24.181 25.1399 23.001C25.1399 21.821 24.1799 20.86 22.9999 20.86ZM10.4999 25.86C8.92289 25.86 7.63989 24.577 7.63989 23C7.63989 21.423 8.92289 20.14 10.4999 20.14C12.0769 20.14 13.3599 21.423 13.3599 23C13.3599 24.577 12.0769 25.86 10.4999 25.86ZM10.4999 20.86C9.31989 20.86 8.35989 21.82 8.35989 23C8.35989 24.18 9.31989 25.14 10.4999 25.14C11.6799 25.14 12.6399 24.181 12.6399 23C12.6399 21.819 11.6799 20.86 10.4999 20.86ZM16.5039 15.361C16.2559 15.361 16.0059 15.328 15.7589 15.262C15.0209 15.064 14.4049 14.591 14.0229 13.93C13.6409 13.269 13.5399 12.498 13.7369 11.76C13.9339 11.022 14.4079 10.405 15.0699 10.023C15.7309 9.64101 16.5009 9.54101 17.2389 9.73701C17.9769 9.93501 18.5929 10.408 18.9749 11.069C19.3569 11.731 19.4579 12.502 19.2609 13.239C19.0639 13.976 18.5899 14.593 17.9289 14.975C17.4889 15.231 16.9999 15.361 16.5039 15.361ZM16.4959 10.359C16.1249 10.359 15.7599 10.456 15.4299 10.647C14.9349 10.933 14.5799 11.394 14.4329 11.946C14.2849 12.498 14.3609 13.075 14.6469 13.57C14.9319 14.065 15.3939 14.419 15.9459 14.567C16.4959 14.714 17.0739 14.638 17.5699 14.353C18.0649 14.067 18.4189 13.606 18.5669 13.054C18.7139 12.502 18.6389 11.926 18.3529 11.43C18.0669 10.934 17.6059 10.581 17.0539 10.433C16.8689 10.384 16.6819 10.359 16.4959 10.359ZM29.5049 15.359C28.5159 15.359 27.5529 14.846 27.0239 13.93C26.2359 12.564 26.7059 10.812 28.0709 10.024C29.4379 9.23501 31.1889 9.70601 31.9769 11.07C32.7649 12.436 32.2949 14.189 30.9299 14.977C30.4799 15.236 29.9889 15.359 29.5049 15.359ZM27.6459 13.57C27.9319 14.065 28.3939 14.419 28.9459 14.567C29.4959 14.713 30.0739 14.639 30.5699 14.353C31.5909 13.763 31.9419 12.452 31.3529 11.43C30.7619 10.408 29.4519 10.058 28.4289 10.647C27.4089 11.237 27.0579 12.548 27.6459 13.57Z" fill="#161616"/>
</svg>
