<svg width="31" height="30" viewBox="0 0 31 30" fill="none" xmlns="http://www.w3.org/2000/svg">
<path d="M23.028 28.672L22.669 28.049C27.191 25.439 30 20.576 30 15.361C30 7.288 23.433 0.721 15.36 0.721C7.287 0.72 0.72 7.287 0.72 15.36C0.72 20.576 3.53 25.438 8.052 28.048L7.692 28.671C2.947 25.933 0 20.833 0 15.36C0 6.89 6.89 0 15.36 0C23.83 0 30.72 6.89 30.72 15.36C30.72 20.833 27.773 25.933 23.028 28.672ZM15.72 23.36H15V5.36H15.72V23.36ZM15.36 27.86C14.808 27.86 14.36 28.308 14.36 28.86C14.36 29.412 14.808 29.86 15.36 29.86C15.912 29.86 16.36 29.412 16.36 28.86C16.36 28.308 15.912 27.86 15.36 27.86Z" fill="#161616"/>
</svg>
