<svg width="49" height="50" viewBox="0 0 49 50" fill="none" xmlns="http://www.w3.org/2000/svg">
<rect width="48" height="48.8072" transform="translate(0.5 0.596375)" fill="white" style="mix-blend-mode:multiply"/>
<path d="M47 1.57566H1.99996C1.70146 1.57566 1.45996 1.82122 1.45996 2.12474V26.5284C1.45996 26.8319 1.70146 27.0774 1.99996 27.0774H47C47.2985 27.0774 47.54 26.8319 47.54 26.5284V2.12474C47.54 1.82122 47.2985 1.57566 47 1.57566ZM46.46 7.61861C43.8875 7.35627 41.855 5.28959 41.5955 2.67383H46.46V7.61861ZM46.46 8.71525V19.9302C43.2905 20.2002 40.778 22.755 40.514 25.9793H8.48596C8.22346 22.755 5.71096 20.2002 2.53996 19.9302V8.71525C5.70796 8.44681 8.21896 5.89358 8.48446 2.6723H40.514C40.781 5.8951 43.292 8.44681 46.46 8.71525ZM7.40596 2.67383C7.14646 5.28959 5.11396 7.35627 2.53996 7.61861V2.67383H7.40596ZM2.53996 21.0284C5.11546 21.2907 7.14946 23.3605 7.40596 25.9793H2.53996V21.0284ZM41.5955 25.9793C41.852 23.3605 43.886 21.2907 46.46 21.0284V25.9793H41.5955ZM24.5 4.62306C19.2395 4.62306 14.96 8.97453 14.96 14.3235C14.96 19.6725 19.2395 24.0239 24.5 24.0239C29.7605 24.0239 34.04 19.6725 34.04 14.3235C34.04 8.97453 29.7605 4.62306 24.5 4.62306ZM31.2785 9.19874H28.7945C28.4135 8.00297 27.9065 6.98412 27.299 6.2154C28.9025 6.78889 30.281 7.83824 31.2785 9.19874ZM16.067 14.8726H19.4735C19.508 16.1141 19.6565 17.2855 19.9025 18.3501H17.0285C16.4795 17.3007 16.145 16.1217 16.067 14.8726ZM25.04 9.19874V5.81427C26.093 6.14219 27.026 7.40813 27.65 9.19874H25.04ZM27.9815 10.2969C28.247 11.3508 28.4075 12.5329 28.4465 13.7744H25.04V10.2969H27.9815ZM23.96 5.81427V9.19874H21.35C21.974 7.40813 22.907 6.14372 23.96 5.81427ZM23.96 10.2969V13.7744H20.5535C20.5925 12.5329 20.753 11.3508 21.0185 10.2969H23.96ZM19.4735 13.7744H16.067C16.145 12.5253 16.4795 11.3463 17.0285 10.2969H19.9025C19.6565 11.3615 19.508 12.5329 19.4735 13.7744ZM20.5535 14.8726H23.96V18.3501H21.0185C20.753 17.2962 20.591 16.1141 20.5535 14.8726ZM23.96 19.4483V22.8327C22.907 22.5048 21.974 21.2404 21.3485 19.4483H23.96ZM25.04 22.8327V19.4483H27.65C27.0245 21.2389 26.093 22.5033 25.04 22.8327ZM25.04 18.3501V14.8726H28.4465C28.4075 16.1141 28.247 17.2962 27.9815 18.3501H25.04ZM29.5265 14.8726H32.9315C32.8535 16.1217 32.519 17.3007 31.97 18.3501H29.096C29.3435 17.2855 29.492 16.1141 29.5265 14.8726ZM29.5265 13.7744C29.492 12.5329 29.3435 11.3615 29.0975 10.2969H31.9715C32.5205 11.3463 32.855 12.5253 32.933 13.7744H29.5265ZM21.701 6.2154C21.0935 6.98412 20.585 8.00297 20.2055 9.19874H17.7215C18.719 7.83824 20.0975 6.78889 21.701 6.2154ZM17.7215 19.4483H20.2055C20.585 20.644 21.0935 21.6629 21.701 22.4316C20.0975 21.8581 18.719 20.8088 17.7215 19.4483ZM27.299 22.4316C27.9065 21.6629 28.415 20.644 28.7945 19.4483H31.2785C30.281 20.8088 28.9025 21.8581 27.299 22.4316ZM8.74996 11.4866C7.21246 11.4866 5.95996 12.7601 5.95996 14.3235C5.95996 15.8869 7.21096 17.1604 8.74996 17.1604C10.289 17.1604 11.54 15.8869 11.54 14.3235C11.54 12.7601 10.2875 11.4866 8.74996 11.4866ZM8.74996 16.0623C7.80796 16.0623 7.03996 15.2813 7.03996 14.3235C7.03996 13.3657 7.80796 12.5847 8.74996 12.5847C9.69196 12.5847 10.46 13.3657 10.46 14.3235C10.46 15.2813 9.69196 16.0623 8.74996 16.0623ZM40.25 11.4866C38.7125 11.4866 37.46 12.7586 37.46 14.3235C37.46 15.8884 38.7125 17.1604 40.25 17.1604C41.7875 17.1604 43.04 15.8884 43.04 14.3235C43.04 12.7586 41.7875 11.4866 40.25 11.4866ZM40.25 16.0623C39.3065 16.0623 38.54 15.2813 38.54 14.3235C38.54 13.3657 39.3065 12.5847 40.25 12.5847C41.1935 12.5847 41.96 13.3657 41.96 14.3235C41.96 15.2813 41.1935 16.0623 40.25 16.0623ZM40.7615 31.3466C41.798 32.402 41.7965 34.1194 40.7615 35.1749L31.6625 44.4803C31.1075 45.0431 30.377 45.4061 29.6015 45.5068L18.752 46.8749L17.3825 48.2674L16.619 47.4895L18.119 45.9643C18.2045 45.8774 18.314 45.8225 18.434 45.8072L29.468 44.4147C30.005 44.3461 30.5135 44.0929 30.899 43.7024L39.9965 34.397C40.613 33.7701 40.613 32.7498 39.9965 32.1214C39.437 31.5555 38.5445 31.4503 37.727 32.1534L28.298 39.9854L28.265 39.9443C27.65 40.472 26.8655 40.8014 26 40.8014H18.5V39.7033H26C27.356 39.7033 28.46 38.5822 28.46 37.2019C28.46 36.6635 28.0295 36.2258 27.5 36.2258H15.5C11.6615 36.2258 8.53996 39.3997 8.53996 43.3028C8.53996 43.4492 8.48296 43.5895 8.38246 43.6917L3.88246 48.2674L3.11896 47.4895L7.46296 43.0725C7.58296 38.6707 11.1425 35.1276 15.5 35.1276H27.5C28.625 35.1276 29.54 36.058 29.54 37.2019C29.54 37.3285 29.516 37.4475 29.504 37.5695L37.037 31.3115C37.4375 30.9668 38.087 30.5519 38.879 30.5519C39.5885 30.5519 40.256 30.8341 40.7615 31.3466Z" fill="#161616"/>
</svg>
