<svg width="32" height="32" viewBox="0 0 32 32" fill="none" xmlns="http://www.w3.org/2000/svg">
<g clip-path="url(#clip0_830_74359)">
<rect width="32" height="32" fill="white" style="mix-blend-mode:multiply"/>
<path d="M15.9999 31.3599C7.52989 31.3599 0.639893 24.4699 0.639893 15.9999C0.639893 7.52989 7.52989 0.639893 15.9999 0.639893C24.4699 0.639893 31.3599 7.52989 31.3599 15.9999C31.3599 24.4699 24.4699 31.3599 15.9999 31.3599ZM15.9999 1.35989C7.92689 1.35989 1.35989 7.92689 1.35989 15.9999C1.35989 24.0719 7.92689 30.6399 15.9999 30.6399C24.0719 30.6399 30.6399 24.0729 30.6399 15.9999C30.6399 7.92689 24.0719 1.35989 15.9999 1.35989ZM21.7009 23.1999C21.6809 23.1719 19.7489 20.3599 15.9999 20.3599C12.2509 20.3599 10.3179 23.1719 10.2989 23.1999L9.69989 22.8009C9.78589 22.6709 11.8539 19.6399 15.9989 19.6399C20.1439 19.6399 22.2129 22.6709 22.2989 22.8009L21.7009 23.1999Z" fill="#161616"/>
</g>
<defs>
<clipPath id="clip0_830_74359">
<rect width="32" height="32" fill="white"/>
</clipPath>
</defs>
</svg>
