<svg width="86" height="86" viewBox="0 0 86 86" fill="none" xmlns="http://www.w3.org/2000/svg">
<circle cx="43.0002" cy="43" r="28.6667" fill="#fefefe" fill-opacity="0.3"/>
<circle cx="42.9998" cy="43" r="35.8333" fill="#fefefe" fill-opacity="0.3"/>
<circle cx="43" cy="43" r="43" fill="#fefefe" fill-opacity="0.3"/>
<rect width="46" height="46" transform="translate(20 20)" fill="#fefefe" style="mix-blend-mode:multiply"/>
<rect width="32" height="32" transform="translate(27 27)" fill="#fefefe" style="mix-blend-mode:multiply"/>
<path d="M58.3601 58H57.6401C57.6401 51.568 52.8631 45.768 46.2811 44.208C46.1311 44.172 46.0201 44.045 46.0061 43.891C45.9911 43.738 46.0771 43.592 46.2181 43.529C49.0791 42.256 50.9281 39.413 50.9281 36.288C50.9281 31.917 47.3721 28.361 43.0011 28.361C38.6291 28.361 35.0731 31.917 35.0731 36.288C35.0731 39.413 36.9221 42.256 39.7841 43.529C39.9251 43.592 40.0101 43.738 39.9961 43.891C39.9821 44.045 39.8711 44.172 39.7211 44.208C33.1371 45.768 28.3601 51.568 28.3601 58H27.6401C27.6401 51.54 32.2141 45.688 38.6421 43.752C36.0081 42.213 34.3511 39.377 34.3511 36.287C34.3511 31.519 38.2301 27.64 42.9991 27.64C47.7671 27.64 51.6461 31.519 51.6461 36.287C51.6461 39.377 49.9901 42.213 47.3561 43.752C53.7861 45.688 58.3601 51.54 58.3601 58ZM43.0001 57.36C42.9041 57.36 42.8131 57.322 42.7451 57.255L38.7831 53.29C38.2721 52.778 37.9891 52.099 37.9861 51.375C37.9831 50.644 38.2661 49.955 38.7841 49.437C39.2971 48.924 39.9791 48.641 40.7051 48.639C40.7061 48.639 40.7081 48.639 40.7091 48.639C41.4381 48.639 42.1221 48.922 42.6361 49.437L43.0001 49.803L43.3651 49.438C44.3911 48.411 46.1901 48.41 47.2171 49.439C47.7441 49.965 48.0281 50.667 48.0151 51.413C48.0011 52.124 47.7181 52.79 47.2161 53.291L43.2551 57.256C43.1871 57.322 43.0961 57.36 43.0001 57.36ZM40.7091 49.36C40.7081 49.36 40.7071 49.36 40.7061 49.36C40.1721 49.361 39.6701 49.569 39.2931 49.947C38.9121 50.328 38.7031 50.834 38.7061 51.372C38.7081 51.904 38.9171 52.404 39.2931 52.78L43.0001 56.49L46.7071 52.78C47.0761 52.412 47.2851 51.922 47.2941 51.399C47.3041 50.85 47.0961 50.335 46.7071 49.947C45.9511 49.189 44.6301 49.19 43.8741 49.946L43.2541 50.566C43.1131 50.707 42.8861 50.707 42.7451 50.566L42.1261 49.947C41.7481 49.568 41.2451 49.36 40.7091 49.36Z" fill="#161616"/>
<path d="M46.4915 38.87C44.5635 40.7979 41.4377 40.7979 39.5098 38.87" stroke="black" stroke-width="0.75" stroke-linecap="round"/>
</svg>
